<?xml version="1.0"?>
<svg xmlns="http://www.w3.org/2000/svg" width="50" height="50" viewBox="0 0 50 50">
    <path d="M 44 3 C 43.06802 3 42.284463 3.6373007 42.0625 4.5 L 13.65625 12.25 C 14.08725 12.783 14.42625 13.37225 14.65625 14.03125 L 42.59375 6.40625 C 42.955679 6.7681788 43.447716 7 44 7 C 45.104569 7 46 6.1045695 46 5 C 46 3.8954305 45.104569 3 44 3 z M 9 12 C 7.1394596 12 5.6015561 13.276875 5.15625 15 L 2 15 C 0.897 15 0 15.897 0 17 L 0 45 C 0 46.103 0.897 47 2 47 L 48 47 C 49.103 47 50 46.103 50 45 L 50 17 C 50 15.897 49.103 15 48 15 L 12.84375 15 C 12.398444 13.276875 10.86054 12 9 12 z M 34 21 C 37.277106 21 40.176679 22.567229 42 25 L 26 25 C 27.824072 22.567229 30.725265 21 34 21 z M 9 23 C 10.107 23 11 23.892 11 25 C 11 26.108 10.107 27 9 27 C 7.893 27 7 26.108 7 25 C 7 23.892 7.893 23 9 23 z M 24.8125 27 L 43.1875 27 C 43.592059 27.931518 43.833874 28.94692 43.9375 30 L 24.0625 30 C 24.166212 28.94692 24.407694 27.931518 24.8125 27 z M 9 30 C 10.107 30 11 30.892 11 32 C 11 33.108 10.107 34 9 34 C 7.893 34 7 33.108 7 32 C 7 30.892 7.893 30 9 30 z M 24.0625 32 L 43.9375 32 C 43.833874 33.052929 43.592059 34.068516 43.1875 35 L 24.8125 35 C 24.407694 34.068516 24.166212 33.052929 24.0625 32 z M 26 37 L 42 37 C 40.176679 39.432849 37.277106 41 34 41 C 30.725265 41 27.824072 39.432849 26 37 z"/>
</svg>
